<svg width="34" height="32" viewBox="0 0 34 32" xmlns="http://www.w3.org/2000/svg"><title/><g fill-rule="evenodd"><path d="M12.312 15.62h7.65a2.49 2.49 0 0 0 2.485-2.487 2.49 2.49 0 0 0-2.49-2.485h-7.652a2.49 2.49 0 0 0-2.487 2.485 2.49 2.49 0 0 0 2.494 2.486zm-.01-3.83h7.658a1.346 1.346 0 0 1 0 2.688h-7.657a1.347 1.347 0 0 1-1.345-1.345c0-.74.604-1.344 1.345-1.344z"/><path d="M32.11 3.825a2.494 2.494 0 0 0-2.485-2.485H2.635a2.492 2.492 0 0 0-2.48 2.485V6.31H1.2v24.896h29.87V6.31h1.04V3.826zm-30.812 0c0-.74.603-1.343 1.34-1.346h26.986a1.35 1.35 0 0 1 1.348 1.34v1.35H1.297V3.825zm28.63 26.24H2.338V6.31h27.59v23.755z"/></g></svg>