<svg width="29" height="32" viewBox="0 0 29 32" xmlns="http://www.w3.org/2000/svg"><title/><path d="M26.267 3.425h-1.122V2.292A2.295 2.295 0 0 0 22.85 0a2.294 2.294 0 0 0-2.29 2.292v1.133H8.013V2.292A2.294 2.294 0 0 0 5.723 0a2.292 2.292 0 0 0-2.29 2.292v1.133H2.277A2.302 2.302 0 0 0 0 5.72v25.7c0 .32.263.58.58.58h27.417a.58.58 0 0 0 .578-.58V5.72a2.31 2.31 0 0 0-2.308-2.295zm-12.55 8.014v5.68h-5.7v-5.68h5.7zm6.844 0v5.68h-5.68v-5.68h5.688zm6.86 0v5.68h-5.7v-5.68h5.695zM6.86 17.12h-5.7v-5.69h5.698v5.686zm-5.7 1.16h5.7v5.696h-5.7V18.28zm6.86 0h5.7v5.696h-5.7V18.28zm6.856 0h5.688v5.696h-5.688V18.28zm6.846 0h5.695v5.696H21.72V18.28zm0-15.994a1.133 1.133 0 0 1 2.264 0v3.43a1.132 1.132 0 0 1-2.263 0V2.292zm-17.13 0a1.13 1.13 0 0 1 2.263 0v3.43a1.132 1.132 0 0 1-2.264 0V2.292zm-3.43 3.43c0-.62.505-1.13 1.147-1.134h1.12V5.72a2.292 2.292 0 0 0 2.29 2.292A2.293 2.293 0 0 0 8.01 5.72V4.586h12.55V5.72a2.294 2.294 0 0 0 2.29 2.292 2.294 2.294 0 0 0 2.294-2.292V4.586h1.142a1.14 1.14 0 0 1 1.127 1.134v4.56H1.16V5.72zm0 19.422H6.86v5.697h-5.7V25.14zm6.86 0h5.697v5.697h-5.7V25.14zm6.855 0h5.688v5.697h-5.688V25.14zm12.54 5.697H21.72V25.14h5.694v5.698z" fill-rule="evenodd"/></svg>