<svg width="29" height="32" viewBox="0 0 29 32" xmlns="http://www.w3.org/2000/svg"><title/><path d="M26.267 3.425h-1.122V2.292A2.295 2.295 0 0 0 22.85 0a2.294 2.294 0 0 0-2.29 2.292v1.133H8.013V2.292A2.294 2.294 0 0 0 5.723 0a2.292 2.292 0 0 0-2.29 2.292v1.133H2.277A2.302 2.302 0 0 0 0 5.72v25.7c0 .32.263.58.58.58h27.417a.58.58 0 0 0 .578-.58V5.72a2.31 2.31 0 0 0-2.308-2.295zm-12.55 8.014v5.684h-5.7V11.44h5.7zm6.844 0v5.684h-5.685V11.44h5.688zm6.856 0v5.684H21.72V11.44h5.694zM6.858 17.12H1.16v-5.686h5.698v5.686zm-5.7 1.16h5.698v5.698H1.16v-5.697zm6.86 0h5.698v5.698H8.018v-5.697zm6.856 0h5.688v5.698h-5.688v-5.697zm6.846 0h5.694v5.698H21.72v-5.697zm0-15.992a1.133 1.133 0 0 1 2.263 0v3.43a1.132 1.132 0 0 1-2.263 0V2.292zm-17.132 0a1.13 1.13 0 0 1 2.264 0v3.43a1.132 1.132 0 0 1-2.264 0V2.292zm-3.43 3.43c0-.62.506-1.13 1.148-1.134H3.43V5.72a2.292 2.292 0 0 0 2.292 2.292 2.293 2.293 0 0 0 2.29-2.292V4.586h12.55V5.72a2.294 2.294 0 0 0 2.29 2.292 2.294 2.294 0 0 0 2.293-2.292V4.586h1.142a1.14 1.14 0 0 1 1.127 1.134v4.56H1.16V5.72zm0 19.422h5.698v5.698H1.16v-5.698zm6.86 0h5.698v5.698H8.018v-5.698zm6.856 0h5.688v5.698h-5.688v-5.698zm12.54 5.698H21.72v-5.698h5.694v5.698z" fill-rule="evenodd"/></svg>