<svg xmlns="http://www.w3.org/2000/svg" viewBox="0 0 1000 1000"><path d="M121.78 15.55l-5.55 5.55v957.8l5.55 5.55 5.55 5.55h745.34l5.55-5.55 5.55-5.55V248.3L764.52 129.25 645.47 10H127.33l-5.55 5.55zm501.29 136.86c.38 108.72.38 109.1 4.59 113.5l4.02 4.4 109.29.38 109.29.57.57 343 .38 343.19H148.77V42.54l236.96.38 236.77.58.57 108.91zm118.49-.39c46.7 46.7 84.79 85.18 84.79 85.75 0 1.91-165.95 1.53-168.82-.19-1.92-1.34-2.49-17.61-2.68-85.94 0-46.32.38-84.22.96-84.22.57 0 39.23 38.09 85.75 84.6z"/><path d="M351.28 333.48c-19.71 15.7-36.56 28.71-37.32 28.71-.57 0-7.08-5.55-14.16-12.44-11.1-10.72-13.78-12.44-19.71-12.44-9.38 0-16.46 6.89-16.46 15.89 0 5.55 2.68 9 22.01 27.95 20.67 20.48 22.2 21.63 27.95 20.48 5.93-1.15 90.73-67.18 94.36-73.5 5.55-9.95-2.49-23.35-13.97-23.35-5.95-.01-11.5 3.62-42.7 28.7zm84.6 21.62c-10.53 5.36-12.25 17.99-3.45 26.22 4.02 3.83 6.12 3.83 141.26 3.83h137.24l4.4-4.79c6.13-6.51 6.13-16.65.38-22.59l-4.4-4.21-135.32-.38c-105.85-.37-136.28.01-140.11 1.92zm-84.6 158.3c-19.71 15.7-36.56 28.71-37.32 28.71-.57 0-7.08-5.55-14.16-12.44-11.5-11.1-13.6-12.44-20.49-12.44-6.13 0-8.61 1.15-11.68 4.98-8.04 10.15-5.93 14.74 16.84 37.9 18.38 18.56 21.63 21.05 27.37 21.05 5.36 0 12.44-4.79 45.55-31.2 51.5-41.16 51.69-41.35 51.69-50.34 0-9.57-5.36-14.93-14.93-14.93-6.31 0-11.1 3.25-42.87 28.71zm80.58 24.69c-3.25 3.45-5.55 7.66-5.55 10.72s2.3 7.27 5.55 10.72l5.55 5.55H709.4l5.17-4.59c4.02-3.45 5.36-6.12 5.36-11.67s-1.34-8.23-5.36-11.67l-5.17-4.59H437.41l-5.55 5.53zM388.6 664.61c-2.49.96-19.33 13.78-37.32 28.33-18.18 14.55-34.26 27.18-35.79 27.95-1.72 1.15-6.13-1.91-14.36-9.95-6.32-6.51-13.97-12.63-16.84-13.59-10.14-3.83-20.67 4.4-20.67 15.89 0 4.4 3.83 9.38 20.48 26.22 28.52 29.09 23.54 29.86 77.52-13.21 23.54-18.76 43.64-35.41 44.98-36.94 5.55-6.89 2.87-19.52-5.17-23.74-6.32-3.26-6.9-3.26-12.83-.96zm43.26 53.4c-3.25 3.45-5.55 7.66-5.55 10.72s2.3 7.27 5.55 10.72l5.55 5.55H709.4l5.17-4.59c4.02-3.45 5.36-6.12 5.36-11.67s-1.34-8.23-5.36-11.67l-5.17-4.59H437.41l-5.55 5.53z"/></svg>