<svg width="24" height="24" viewBox="0 0 24 24" xmlns="http://www.w3.org/2000/svg"><title>Group</title><g fill-rule="evenodd"><path d="M11.764.538C5.465.538.344 5.66.344 11.958c0 6.3 5.121 11.423 11.42 11.423 6.297 0 11.424-5.123 11.424-11.423 0-6.298-5.127-11.42-11.424-11.42zm0 22.024c-5.846 0-10.602-4.757-10.602-10.604 0-5.845 4.756-10.601 10.602-10.601s10.604 4.756 10.604 10.601c-.001 5.847-4.759 10.604-10.604 10.604z"/><path d="M11.764 7.418a4.545 4.545 0 0 0-4.539 4.54 4.545 4.545 0 0 0 4.539 4.54 4.545 4.545 0 0 0 4.539-4.54 4.545 4.545 0 0 0-4.539-4.54zm0 8.261a3.725 3.725 0 0 1-3.721-3.721 3.723 3.723 0 0 1 3.721-3.72 3.723 3.723 0 0 1 3.719 3.72 3.726 3.726 0 0 1-3.719 3.721z"/><path d="M11.764 4.668a.41.41 0 1 0 0 .82c3.568 0 6.473 2.901 6.473 6.47a.41.41 0 1 0 .82 0c0-4.02-3.272-7.29-7.293-7.29zm0 13.764a6.481 6.481 0 0 1-6.475-6.474.41.41 0 0 0-.818 0c0 4.021 3.271 7.294 7.293 7.294.225 0 .41-.186.41-.411a.412.412 0 0 0-.41-.409z"/><path d="M11.764 3.292a.408.408 0 1 0 0 .818c4.328 0 7.85 3.521 7.85 7.848 0 .226.182.408.41.408.227 0 .41-.183.41-.408 0-4.777-3.891-8.666-8.67-8.666zm0 16.516c-4.33 0-7.852-3.521-7.852-7.85a.409.409 0 1 0-.818 0c0 4.779 3.889 8.669 8.67 8.669a.41.41 0 0 0 .41-.41.412.412 0 0 0-.41-.409z"/></g></svg>