<?xml version="1.0" encoding="UTF-8" standalone="no"?>
<svg width="24px" height="24px" viewBox="0 0 24 24" version="1.1" xmlns="http://www.w3.org/2000/svg" xmlns:xlink="http://www.w3.org/1999/xlink">
    <!-- Generator: Sketch 3.7.2 (28276) - http://www.bohemiancoding.com/sketch -->
    <title>Group</title>
    <desc>Created with Sketch.</desc>
    <defs></defs>
    <g id="Symbols" stroke="none" stroke-width="1" fill="none" fill-rule="evenodd">
        <g id="Circle" fill="#000000">
            <g id="Group">
                <path d="M11.764,0.538 C5.465,0.538 0.344,5.66 0.344,11.958 C0.344,18.258 5.465,23.381 11.764,23.381 C18.061,23.381 23.188,18.258 23.188,11.958 C23.188,5.66 18.061,0.538 11.764,0.538 L11.764,0.538 Z M11.764,22.562 C5.918,22.562 1.162,17.805 1.162,11.958 C1.162,6.113 5.918,1.357 11.764,1.357 C17.61,1.357 22.368,6.113 22.368,11.958 C22.367,17.805 17.609,22.562 11.764,22.562 L11.764,22.562 Z" id="Shape"></path>
                <path d="M11.764,7.418 C9.262,7.418 7.225,9.454 7.225,11.958 C7.225,14.462 9.262,16.498 11.764,16.498 C14.266,16.498 16.303,14.462 16.303,11.958 C16.303,9.454 14.266,7.418 11.764,7.418 L11.764,7.418 Z M11.764,15.679 C9.711,15.679 8.043,14.009 8.043,11.958 C8.043,9.906 9.711,8.238 11.764,8.238 C13.815,8.238 15.483,9.906 15.483,11.958 C15.482,14.009 13.814,15.679 11.764,15.679 L11.764,15.679 Z" id="Shape"></path>
                <path d="M11.764,4.668 C11.535,4.668 11.354,4.852 11.354,5.078 C11.354,5.304 11.536,5.488 11.764,5.488 C15.332,5.488 18.237,8.389 18.237,11.958 C18.237,12.184 18.421,12.366 18.647,12.366 C18.873,12.366 19.057,12.183 19.057,11.958 C19.057,7.938 15.785,4.668 11.764,4.668 L11.764,4.668 Z" id="Shape"></path>
                <path d="M11.764,18.432 C8.194,18.432 5.289,15.529 5.289,11.958 C5.289,11.732 5.105,11.548 4.881,11.548 C4.652,11.548 4.471,11.733 4.471,11.958 C4.471,15.979 7.742,19.252 11.764,19.252 C11.989,19.252 12.174,19.066 12.174,18.841 C12.174,18.616 11.988,18.432 11.764,18.432 L11.764,18.432 Z" id="Shape"></path>
                <path d="M11.764,3.292 C11.535,3.292 11.354,3.475 11.354,3.702 C11.354,3.928 11.536,4.11 11.764,4.11 C16.092,4.11 19.614,7.631 19.614,11.958 C19.614,12.184 19.796,12.366 20.024,12.366 C20.251,12.366 20.434,12.183 20.434,11.958 C20.434,7.181 16.543,3.292 11.764,3.292 L11.764,3.292 Z" id="Shape"></path>
                <path d="M11.764,19.808 C7.434,19.808 3.912,16.287 3.912,11.958 C3.912,11.732 3.73,11.548 3.504,11.548 C3.275,11.548 3.094,11.733 3.094,11.958 C3.094,16.737 6.983,20.627 11.764,20.627 C11.989,20.627 12.174,20.444 12.174,20.217 C12.174,19.992 11.988,19.808 11.764,19.808 L11.764,19.808 Z" id="Shape"></path>
            </g>
        </g>
    </g>
</svg>