
<svg xmlns="http://www.w3.org/2000/svg" xmlns:xlink="http://www.w3.org/1999/xlink" version="1.1" x="0px" y="0px" viewBox="0 0 100 125" enable-background="new 0 0 100 100" xml:space="preserve"><g><path d="M81.75,26.253v42.125h-8.253L64.375,77.5l-8.688-9.122H18.25V26.253H81.75 M81.75,18.253h-63.5c-4.418,0-8,3.582-8,8   v42.125c0,4.418,3.582,8,8,8h34.009l6.322,6.639c1.487,1.562,3.54,2.456,5.696,2.482C64.31,85.5,64.342,85.5,64.375,85.5   c2.12,0,4.155-0.842,5.656-2.343l6.779-6.779h4.939c4.418,0,8-3.582,8-8V26.253C89.75,21.834,86.168,18.253,81.75,18.253   L81.75,18.253z"/></g></svg>