<svg width="32" height="32" viewBox="0 0 32 32" xmlns="http://www.w3.org/2000/svg"><title/><g fill-rule="evenodd"><path d="M22.325 9.067l-9.033 3.87a.548.548 0 0 0-.287.287l-3.872 9.03a.555.555 0 0 0 .506.762.55.55 0 0 0 .21-.045l9.03-3.87a.553.553 0 0 0 .29-.282l3.87-9.03a.553.553 0 0 0-.118-.602.552.552 0 0 0-.602-.113zM10.68 21.43l3.013-7.034 4.022 4.02-7.035 3.015zm7.807-3.786l-4.024-4.02 7.036-3.017-3.018 7.037z"/><path d="M16.088.876C7.738.876.945 7.668.945 16.016c0 8.35 6.795 15.144 15.143 15.144 8.352 0 15.143-6.796 15.143-15.143.007-8.35-6.79-15.14-15.14-15.14zm0 29.193c-7.748 0-14.05-6.31-14.05-14.05 0-7.75 6.303-14.05 14.05-14.05 7.747 0 14.05 6.3 14.05 14.05 0 7.74-6.302 14.05-14.05 14.05z"/><path d="M16.088 4.928a.768.768 0 0 0 0-1.536.768.768 0 0 0 0 1.536zm0-1.093c.183 0 .328.145.328.325 0 .36-.653.36-.653 0 0-.18.146-.325.325-.325zm0 23.277a.767.767 0 0 0 0 1.532.765.765 0 1 0 0-1.532zm-.325.764c0-.18.145-.323.325-.323.183 0 .328.143.328.323 0 .365-.653.365-.653 0zM27.95 15.252a.768.768 0 0 0 0 1.535.768.768 0 0 0 0-1.535zm-.325.767a.32.32 0 0 1 .326-.33c.18 0 .328.144.328.324 0 .364-.648.364-.648 0zm-23.393-.77a.766.766 0 1 0 .002 1.53.766.766 0 0 0-.002-1.53zm-.328.764c0-.18.145-.326.328-.326.18 0 .325.144.325.324 0 .357-.653.357-.653 0z"/></g></svg>