<?xml version="1.0" encoding="UTF-8" standalone="no"?>
<svg width="23px" height="12px" viewBox="0 0 23 12" version="1.1" xmlns="http://www.w3.org/2000/svg" xmlns:xlink="http://www.w3.org/1999/xlink">
    <!-- Generator: Sketch 3.7.2 (28276) - http://www.bohemiancoding.com/sketch -->
    <title>Shape</title>
    <desc>Created with Sketch.</desc>
    <defs></defs>
    <g id="Symbols" stroke="none" stroke-width="1" fill="none" fill-rule="evenodd">
        <g id="Dashboard" fill="#000000">
            <path d="M21.316,5.742 C21.31,5.731 21.318,5.72 21.31,5.711 C21.304,5.699 21.29,5.699 21.283,5.69 C20.285,3.981 18.861,2.556 17.15,1.559 C17.142,1.551 17.142,1.536 17.13,1.53 C17.12,1.525 17.109,1.53 17.097,1.525 C15.423,0.559 13.486,0 11.419,0 C9.351,0 7.415,0.56 5.739,1.525 C5.727,1.53 5.716,1.524 5.706,1.53 C5.696,1.536 5.692,1.552 5.685,1.56 C3.978,2.556 2.554,3.979 1.558,5.684 C1.55,5.699 1.533,5.699 1.527,5.711 C1.519,5.721 1.527,5.736 1.521,5.747 C0.556,7.422 1.13686838e-13,9.355 1.13686838e-13,11.422 C1.13686838e-13,11.648 0.182,11.832 0.408,11.832 L22.431,11.832 C22.658,11.832 22.841,11.647 22.841,11.422 C22.841,9.354 22.281,7.416 21.316,5.742 L21.316,5.742 Z M10.451,10.045 C10.451,9.512 10.887,9.077 11.42,9.077 C11.953,9.077 12.387,9.512 12.387,10.045 C12.387,10.577 11.953,11.012 11.42,11.012 C10.887,11.012 10.451,10.578 10.451,10.045 L10.451,10.045 Z M12.88,11.012 C13.069,10.728 13.204,10.408 13.204,10.045 C13.204,9.703 13.083,9.401 12.915,9.13 L15.601,6.442 C15.761,6.282 15.761,6.023 15.601,5.864 C15.441,5.7 15.181,5.704 15.021,5.864 L12.337,8.549 C12.064,8.383 11.761,8.259 11.419,8.259 C10.435,8.259 9.632,9.061 9.632,10.046 C9.632,10.408 9.767,10.729 9.958,11.013 L0.825,11.013 C0.889,9.381 1.329,7.85 2.05,6.488 L4.06,7.647 C4.124,7.684 4.195,7.703 4.267,7.703 C4.408,7.703 4.546,7.631 4.621,7.497 C4.734,7.302 4.666,7.052 4.471,6.938 L2.463,5.779 C3.307,4.442 4.438,3.306 5.772,2.463 L6.934,4.475 C7.01,4.607 7.149,4.681 7.289,4.681 C7.359,4.681 7.43,4.663 7.494,4.625 C7.687,4.513 7.756,4.261 7.644,4.066 L6.476,2.044 C7.839,1.323 9.378,0.902 11.009,0.841 L11.009,3.162 C11.009,3.39 11.193,3.572 11.419,3.572 C11.644,3.572 11.827,3.389 11.827,3.162 L11.827,0.841 C13.458,0.903 14.997,1.322 16.358,2.044 L15.192,4.066 C15.079,4.26 15.147,4.512 15.342,4.625 C15.406,4.663 15.477,4.681 15.547,4.681 C15.688,4.681 15.826,4.607 15.902,4.475 L17.064,2.46 C18.4,3.306 19.529,4.442 20.375,5.777 L18.367,6.938 C18.17,7.051 18.103,7.301 18.217,7.497 C18.293,7.631 18.432,7.703 18.572,7.703 C18.642,7.703 18.715,7.684 18.777,7.647 L20.787,6.486 C21.51,7.85 21.949,9.382 22.014,11.013 L12.88,11.013 L12.88,11.012 Z" id="Shape"></path>
        </g>
    </g>
</svg>