<svg width="23" height="12" viewBox="0 0 23 12" xmlns="http://www.w3.org/2000/svg"><title>Shape</title><path d="M21.316 5.742c-.006-.011.002-.022-.006-.031-.006-.012-.02-.012-.027-.021a11.485 11.485 0 0 0-4.133-4.131c-.008-.008-.008-.023-.02-.029-.01-.005-.021 0-.033-.005a11.345 11.345 0 0 0-11.358 0c-.012.005-.023-.001-.033.005-.01.006-.014.022-.021.03a11.489 11.489 0 0 0-4.127 4.124c-.008.015-.025.015-.031.027-.008.01 0 .025-.006.036A11.323 11.323 0 0 0 0 11.422c0 .226.182.41.408.41h22.023a.41.41 0 0 0 .41-.41c0-2.068-.56-4.006-1.525-5.68zm-10.865 4.303a.97.97 0 0 1 1.936 0 .969.969 0 0 1-1.936 0zm2.429.967c.189-.284.324-.604.324-.967 0-.342-.121-.644-.289-.915l2.686-2.688a.408.408 0 0 0 0-.578.407.407 0 0 0-.58 0l-2.684 2.685c-.273-.166-.576-.29-.918-.29a1.79 1.79 0 0 0-1.787 1.787c0 .362.135.683.326.967H.825A10.525 10.525 0 0 1 2.05 6.488l2.01 1.159a.413.413 0 0 0 .207.056.41.41 0 0 0 .204-.765L2.463 5.779a10.644 10.644 0 0 1 3.309-3.316l1.162 2.012a.411.411 0 0 0 .56.15.413.413 0 0 0 .15-.559L6.476 2.044A10.506 10.506 0 0 1 11.009.841v2.321a.41.41 0 1 0 .818 0V.841a10.49 10.49 0 0 1 4.531 1.203l-1.166 2.022a.41.41 0 0 0 .71.409l1.162-2.015a10.706 10.706 0 0 1 3.311 3.317l-2.008 1.161a.407.407 0 0 0-.15.559.407.407 0 0 0 .56.15l2.01-1.161a10.533 10.533 0 0 1 1.227 4.527H12.88v-.001z" fill-rule="evenodd"/></svg>