<?xml version="1.0" encoding="UTF-8" standalone="no"?>
<svg width="18px" height="24px" viewBox="0 0 18 24" version="1.1" xmlns="http://www.w3.org/2000/svg" xmlns:xlink="http://www.w3.org/1999/xlink">
    <!-- Generator: Sketch 3.7.2 (28276) - http://www.bohemiancoding.com/sketch -->
    <title>Group</title>
    <desc>Created with Sketch.</desc>
    <defs></defs>
    <g id="Symbols" stroke="none" stroke-width="1" fill="none" fill-rule="evenodd">
        <g id="Document" fill="#000000">
            <g id="Group">
                <path d="M17.059,6.471 L17.059,6.471 L11.528,0.942 C11.447,0.861 11.343,0.822 11.238,0.822 L1.131,0.822 C0.904,0.822 0.72,1.006 0.72,1.231 L0.72,23.35 C0.72,23.577 0.904,23.761 1.131,23.761 L16.77,23.761 C16.997,23.761 17.18,23.577 17.18,23.35 L17.18,6.761 C17.18,6.649 17.134,6.547 17.059,6.471 L17.059,6.471 Z M11.647,2.221 L15.779,6.351 L11.647,6.351 L11.647,2.221 L11.647,2.221 Z M16.36,22.941 L1.54,22.941 L1.54,1.642 L10.828,1.642 L10.828,6.762 C10.828,6.987 11.011,7.171 11.238,7.171 L16.36,7.171 L16.36,22.941 L16.36,22.941 Z" id="Shape"></path>
                <path d="M3.49,10.593 C3.49,10.82 3.673,11.003 3.9,11.003 L14,11.003 C14.226,11.003 14.41,10.819 14.41,10.593 C14.41,10.368 14.226,10.184 14,10.184 L3.899,10.184 C3.673,10.184 3.49,10.368 3.49,10.593 L3.49,10.593 Z" id="Shape"></path>
                <path d="M14,13.173 L3.899,13.173 C3.672,13.173 3.489,13.357 3.489,13.583 C3.489,13.808 3.672,13.992 3.899,13.992 L14,13.992 C14.226,13.992 14.41,13.808 14.41,13.583 C14.41,13.357 14.227,13.173 14,13.173 L14,13.173 Z" id="Shape"></path>
                <path d="M14,16.167 L3.899,16.167 C3.672,16.167 3.489,16.351 3.489,16.577 C3.489,16.803 3.672,16.987 3.899,16.987 L14,16.987 C14.226,16.987 14.41,16.803 14.41,16.577 C14.41,16.351 14.227,16.167 14,16.167 L14,16.167 Z" id="Shape"></path>
                <path d="M14,19.157 L3.899,19.157 C3.672,19.157 3.489,19.341 3.489,19.567 C3.489,19.793 3.672,19.977 3.899,19.977 L14,19.977 C14.226,19.977 14.41,19.793 14.41,19.567 C14.41,19.341 14.227,19.157 14,19.157 L14,19.157 Z" id="Shape"></path>
            </g>
        </g>
    </g>
</svg>