<svg width="18" height="24" viewBox="0 0 18 24" xmlns="http://www.w3.org/2000/svg"><title>Group</title><g fill-rule="evenodd"><path d="M17.059 6.471L11.528.942a.406.406 0 0 0-.29-.12H1.131a.41.41 0 0 0-.411.409V23.35c0 .227.184.411.411.411H16.77a.41.41 0 0 0 .41-.411V6.761a.412.412 0 0 0-.121-.29zm-5.412-4.25l4.132 4.13h-4.132v-4.13zm4.713 20.72H1.54V1.642h9.288v5.12a.41.41 0 0 0 .41.409h5.122v15.77z"/><path d="M3.49 10.593c0 .227.183.41.41.41H14a.41.41 0 0 0 0-.819H3.899a.41.41 0 0 0-.409.409zM14 13.173H3.899a.41.41 0 1 0 0 .819H14a.41.41 0 0 0 0-.819zm0 2.994H3.899a.41.41 0 1 0 0 .82H14a.41.41 0 0 0 0-.82zm0 2.99H3.899a.41.41 0 1 0 0 .82H14a.41.41 0 0 0 0-.82z"/></g></svg>