<svg width="34" height="32" viewBox="0 0 34 32" xmlns="http://www.w3.org/2000/svg"><title/><g fill-rule="evenodd"><path d="M32.284 19.754c-.004-.03.017-.057.008-.087L26.546 1.053a.57.57 0 0 0-.544-.402H6.852a.57.57 0 0 0-.544.404L.562 19.667c-.01.03.013.06.007.087-.006.03-.035.05-.035.082v11.49c0 .314.256.57.57.57h30.64a.57.57 0 0 0 .57-.57v-11.49c0-.032-.028-.053-.032-.082zM7.272 1.79H25.58l5.395 17.475H1.88L7.272 1.79zm23.906 28.965h-29.5v-10.35h29.5v10.35z"/><path d="M12.598 28.067l7.657-.003a2.488 2.488 0 0 0 2.484-2.486 2.488 2.488 0 0 0-2.486-2.487l-7.657.005a2.488 2.488 0 0 0-2.486 2.485 2.49 2.49 0 0 0 2.487 2.487zm0-3.832h7.714c.715.03 1.288.623 1.288 1.344 0 .74-.604 1.344-1.345 1.344H12.53a1.345 1.345 0 0 1 .068-2.69z"/></g></svg>