<svg width="32" height="32" viewBox="0 0 32 32" xmlns="http://www.w3.org/2000/svg"><title/><g fill-rule="evenodd"><path d="M8.305 5.065h7.34a.546.546 0 0 0 0-1.093h-7.34a.547.547 0 1 0 0 1.093zm0 7.407h14.68c.3 0 .547-.245.547-.547a.55.55 0 0 0-.547-.546H8.305a.547.547 0 1 0 0 1.092zm0-3.672h7.34a.546.546 0 0 0 0-1.093h-7.34a.547.547 0 1 0 0 1.093z"/><path d="M30.87 11.924a.54.54 0 0 0-.19-.385c-.015-.013-.01-.037-.025-.048L27.193 8.81V.913c0-.3-.242-.547-.544-.547H4.63a.547.547 0 0 0-.546.547v7.9l-3.46 2.68c-.015.012-.01.036-.023.047a.54.54 0 0 0-.186.384v18.352c0 .036.022.064.028.097.007.028-.007.054 0 .08.01.02.028.027.035.044.028.06.068.107.114.154.028.03.05.06.088.083.016.01.024.025.04.035a.557.557 0 0 0 .24.054h29.36a.56.56 0 0 0 .24-.053c.016-.01.024-.027.04-.036.035-.02.06-.05.09-.08a.554.554 0 0 0 .112-.155c.007-.018.027-.026.032-.045.008-.026-.003-.05.003-.08.005-.033.028-.06.028-.097V11.924h.006zm-1.094 1.117v16.12L19.38 21.1l10.396-8.06zm-.347-1.115l-2.236 1.73v-3.462l2.234 1.732zM5.18 1.457h20.924v13.046l-6.628 5.137-3.833 2.973-3.84-2.973-6.624-5.137V1.456zM1.508 13.04L11.9 21.1 1.51 29.16V13.04zm2.577-2.847v3.463l-2.232-1.73 2.232-1.733zM2.557 29.73l10.238-7.94 2.513 1.946a.542.542 0 0 0 .67 0l2.513-1.947 10.236 7.94H2.556z"/></g></svg>