<svg width="23" height="24" viewBox="0 0 23 24" xmlns="http://www.w3.org/2000/svg"><title>Shape</title><path d="M15.652 0a7.285 7.285 0 0 0-4.167 1.295A7.375 7.375 0 0 0 7.32 0a7.261 7.261 0 0 0-5.172 2.144A7.286 7.286 0 0 0 0 7.329c0 1.959.764 3.801 2.129 5.165l9.356 10.688 9.339-10.668c2.859-2.858 2.859-7.51.002-10.369A7.268 7.268 0 0 0 15.652 0zm4.575 11.953l-8.741 9.981-8.757-10.001a6.463 6.463 0 0 1-1.91-4.604c0-1.739.678-3.375 1.91-4.604A6.44 6.44 0 0 1 7.321.821c1.427 0 2.782.454 3.918 1.309l.247.186.247-.185a6.471 6.471 0 0 1 3.919-1.31c1.735 0 3.367.676 4.594 1.904 2.539 2.539 2.538 6.671-.019 9.228z" fill-rule="evenodd"/></svg>