<?xml version="1.0" encoding="UTF-8" standalone="no"?>
<svg width="23px" height="24px" viewBox="0 0 23 24" version="1.1" xmlns="http://www.w3.org/2000/svg" xmlns:xlink="http://www.w3.org/1999/xlink">
    <!-- Generator: Sketch 3.7.2 (28276) - http://www.bohemiancoding.com/sketch -->
    <title>Shape</title>
    <desc>Created with Sketch.</desc>
    <defs></defs>
    <g id="Symbols" stroke="none" stroke-width="1" fill="none" fill-rule="evenodd">
        <g id="Heart" fill="#000000">
            <path d="M15.652,1.13686838e-13 C14.147,1.13686838e-13 12.714,0.447 11.485,1.295 C10.27,0.457 8.802,1.13686838e-13 7.32,1.13686838e-13 C5.365,1.13686838e-13 3.528,0.762 2.148,2.144 C0.763,3.529 -1.42108547e-14,5.371 -1.42108547e-14,7.329 C-1.42108547e-14,9.288 0.764,11.13 2.129,12.494 L11.485,23.182 L20.824,12.514 C23.683,9.656 23.683,5.004 20.826,2.145 C19.444,0.762 17.606,1.13686838e-13 15.652,1.13686838e-13 L15.652,1.13686838e-13 Z M20.227,11.953 L11.486,21.934 L2.729,11.933 C1.498,10.704 0.819,9.069 0.819,7.329 C0.819,5.59 1.497,3.954 2.729,2.725 C3.954,1.496 5.586,0.821 7.321,0.821 C8.748,0.821 10.103,1.275 11.239,2.13 L11.486,2.316 L11.733,2.131 C12.869,1.276 14.225,0.821 15.652,0.821 C17.387,0.821 19.019,1.497 20.246,2.725 C22.785,5.264 22.784,9.396 20.227,11.953 L20.227,11.953 Z" id="Shape"></path>
        </g>
    </g>
</svg>