<svg width="33" height="32" viewBox="0 0 33 32" xmlns="http://www.w3.org/2000/svg"><title/><path d="M32.516 19.565c-.004-.03.018-.06.007-.09L26.638.413A.583.583 0 0 0 26.08 0H6.467a.584.584 0 0 0-.557.413L.026 19.478c-.01.03.013.058.007.09-.004.028-.034.05-.034.08v11.768c0 .322.26.584.583.584h31.382a.583.583 0 0 0 .583-.584V19.65c0-.034-.03-.056-.034-.085zM6.896 1.167H25.65l5.524 17.897h-9.3a.584.584 0 0 0-.426.183l-5.184 5.446-5.46-5.46a.583.583 0 0 0-.413-.17H1.374L6.897 1.167zm24.487 29.665H1.168v-10.6h8.983l5.713 5.712c.11.11.258.17.414.17.15-.035.313-.065.422-.18l5.425-5.7h9.26V30.83z" fill-rule="evenodd"/></svg>