<?xml version="1.0" encoding="UTF-8" standalone="no"?>
<svg width="23px" height="23px" viewBox="0 0 23 23" version="1.1" xmlns="http://www.w3.org/2000/svg" xmlns:xlink="http://www.w3.org/1999/xlink">
    <!-- Generator: Sketch 3.7.2 (28276) - http://www.bohemiancoding.com/sketch -->
    <title>Shape</title>
    <desc>Created with Sketch.</desc>
    <defs></defs>
    <g id="Symbols" stroke="none" stroke-width="1" fill="none" fill-rule="evenodd">
        <g id="Kanji" fill="#000000">
            <path d="M20.497,4.75925139 L20.34,4.54025139 L20.078,4.59625139 C17.364,5.18325139 14.895,6.59925139 13.02,8.63125139 L13.02,0.147251389 L12.662,0.101251389 C11.61,-0.0347486111 10.866,-0.0327486111 9.805,0.101251389 L9.447,0.146251389 L9.447,3.58125139 L2.947,3.58125139 L2.825,3.71425139 C2.043,4.56525139 1.398,5.52625139 0.907,6.57025139 L0.631,7.15425139 L3.602,7.15425139 C3.06,9.50125139 1.875,11.6362514 0.157,13.3542514 L0,13.5102514 L0.044,13.7272514 C0.245,14.7062514 0.589,15.6772514 1.068,16.6152514 L1.303,17.0752514 L1.698,16.7422514 C4.605,14.2752514 6.562,10.8832514 7.234,7.15425139 L9.445,7.15425139 L9.445,10.3012514 L5.965,16.0992514 L9.445,14.1672514 L9.445,22.7012514 L9.805,22.7462514 C10.343,22.8142514 10.796,22.8452514 11.232,22.8452514 C11.669,22.8452514 12.122,22.8152514 12.659,22.7462514 L13.018,22.7012514 L13.018,20.9162514 L17.58,20.9162514 L17.684,20.8452514 C18.805,20.0742514 19.774,19.1152514 20.567,17.9892514 L21.023,17.3442514 L13.027,17.3442514 C13.068,16.3782514 13.283,15.4272514 13.611,14.4962514 L16.5,16.1002514 L14.452,12.6882514 C15.996,10.1192514 18.64,8.35425139 21.584,7.95625139 L22.094,7.88725139 L21.913,7.40725139 C21.562,6.46725139 21.084,5.57525139 20.497,4.75925139 L20.497,4.75925139 Z M6.539,6.33425139 L6.484,6.68025139 C5.932,10.1742514 4.193,13.3812514 1.569,15.7642514 C1.274,15.1122514 1.047,14.4452514 0.894,13.7752514 C2.759,11.8482514 4.008,9.44725139 4.51,6.82225139 L4.603,6.33525139 L1.945,6.33525139 C2.326,5.64225139 2.783,4.99325139 3.309,4.40125139 L10.267,4.40125139 L10.267,0.873251389 C10.959,0.802251389 11.504,0.806251389 12.2,0.873251389 L12.2,8.93325139 L11.234,7.32525139 L10.267,8.93325139 L10.267,6.33525139 L6.539,6.33525139 L6.539,6.33425139 Z M19.408,18.1622514 C18.801,18.9012514 18.103,19.5502514 17.326,20.0972514 L12.2,20.0972514 L12.2,21.9732514 C11.501,22.0432514 10.971,22.0432514 10.267,21.9732514 L10.267,13.7132514 L11.234,13.1752514 L12.862,14.0792514 C12.423,15.2702514 12.199,16.5062514 12.199,17.7542514 L12.199,18.1622514 L19.408,18.1622514 L19.408,18.1622514 Z M11.234,12.2372514 L9.447,13.2302514 L8.243,13.8982514 L11.234,8.91425139 L12.2,10.5252514 L12.2,10.9412514 L12.341,10.7592514 L13.981,13.4892514 L14.224,13.8962514 L11.234,12.2372514 L11.234,12.2372514 Z M13.975,11.8902514 L13.176,10.5602514 L12.88,10.0662514 L12.933,9.99825139 C14.699,7.72825139 17.196,6.12225139 19.986,5.45825139 C20.366,6.01525139 20.692,6.60725139 20.959,7.22625139 C18.119,7.75625139 15.575,9.45725139 13.975,11.8902514 L13.975,11.8902514 Z" id="Shape"></path>
        </g>
    </g>
</svg>