<?xml version="1.0" encoding="UTF-8" standalone="no"?>
<svg width="14px" height="24px" viewBox="0 0 14 24" version="1.1" xmlns="http://www.w3.org/2000/svg" xmlns:xlink="http://www.w3.org/1999/xlink">
    <!-- Generator: Sketch 3.7.2 (28276) - http://www.bohemiancoding.com/sketch -->
    <title>Group</title>
    <desc>Created with Sketch.</desc>
    <defs></defs>
    <g id="Page-1" stroke="none" stroke-width="1" fill="none" fill-rule="evenodd">
        <g id="Artboard" transform="translate(-177.000000, -270.000000)" fill="#000000">
            <g id="Group" transform="translate(177.000000, 270.000000)">
                <path d="M6.996,0.821 C3.456,0.821 0.577,3.701 0.577,7.24 C0.577,9.716 2.901,14.292 4.978,17.891 C2.62,18.269 1.068,19.262 1.068,20.461 C1.068,22.025 3.617,23.205 6.996,23.205 C10.375,23.205 12.923,22.025 12.923,20.461 C12.923,19.262 11.372,18.269 9.015,17.891 C11.091,14.289 13.415,9.711 13.415,7.24 C13.416,3.701 10.535,0.821 6.996,0.821 L6.996,0.821 Z M6.996,1.642 C10.084,1.642 12.595,4.152 12.595,7.241 C12.595,9.775 9.722,15.07 8.008,18.004 C7.594,18.711 7.239,19.293 6.996,19.689 C6.754,19.293 6.4,18.711 5.986,18.004 C4.271,15.072 1.396,9.778 1.396,7.241 C1.396,4.151 3.908,1.642 6.996,1.642 L6.996,1.642 Z M12.104,20.462 C12.104,21.374 10.006,22.387 6.996,22.387 C3.985,22.387 1.887,21.374 1.887,20.462 C1.887,19.782 3.201,18.937 5.414,18.648 C5.52,18.83 5.61,18.977 5.706,19.139 C5.758,19.228 5.814,19.32 5.864,19.404 C5.987,19.605 6.089,19.773 6.186,19.933 C6.217,19.983 6.25,20.038 6.278,20.083 C6.384,20.256 6.466,20.388 6.528,20.489 C6.534,20.497 6.544,20.513 6.55,20.523 C6.612,20.624 6.649,20.68 6.649,20.68 L6.994,21.225 L7.341,20.68 C7.341,20.68 7.374,20.628 7.435,20.532 C7.449,20.51 7.469,20.475 7.488,20.446 C7.55,20.35 7.621,20.235 7.717,20.077 C7.739,20.043 7.765,20 7.788,19.964 C7.89,19.795 8.002,19.612 8.132,19.396 C8.176,19.322 8.227,19.236 8.275,19.156 C8.374,18.99 8.468,18.835 8.578,18.648 C10.792,18.937 12.104,19.782 12.104,20.462 L12.104,20.462 Z" id="Shape"></path>
                <path d="M11.013,7.24 C11.013,5.026 9.211,3.225 6.996,3.225 C4.782,3.225 2.981,5.026 2.981,7.24 C2.981,9.456 4.782,11.259 6.996,11.259 C9.21,11.259 11.013,9.456 11.013,7.24 L11.013,7.24 Z M3.801,7.24 C3.801,5.477 5.235,4.045 6.996,4.045 C8.759,4.045 10.192,5.478 10.192,7.24 C10.192,9.004 8.758,10.438 6.996,10.438 C5.234,10.438 3.801,9.004 3.801,7.24 L3.801,7.24 Z" id="Shape"></path>
            </g>
        </g>
    </g>
</svg>