<svg width="14" height="24" viewBox="0 0 14 24" xmlns="http://www.w3.org/2000/svg"><title>Group</title><g fill-rule="evenodd"><path d="M6.996.821A6.426 6.426 0 0 0 .577 7.24c0 2.476 2.324 7.052 4.401 10.651-2.358.378-3.91 1.371-3.91 2.57 0 1.564 2.549 2.744 5.928 2.744s5.927-1.18 5.927-2.744c0-1.199-1.551-2.192-3.908-2.57 2.076-3.602 4.4-8.18 4.4-10.651A6.426 6.426 0 0 0 6.996.821zm0 .821a5.604 5.604 0 0 1 5.599 5.599c0 2.534-2.873 7.829-4.587 10.763a93.429 93.429 0 0 1-1.012 1.685c-.242-.396-.596-.978-1.01-1.685-1.715-2.932-4.59-8.226-4.59-10.763a5.604 5.604 0 0 1 5.6-5.599zm5.108 18.82c0 .912-2.098 1.925-5.108 1.925-3.011 0-5.109-1.013-5.109-1.925 0-.68 1.314-1.525 3.527-1.814.106.182.196.329.292.491l.158.265.322.529.092.15.25.406a.503.503 0 0 1 .022.034 6.2 6.2 0 0 0 .099.157l.345.545.347-.545.094-.148.053-.086c.062-.096.133-.211.229-.369l.071-.113.344-.568.143-.24c.099-.166.193-.321.303-.508 2.214.289 3.526 1.134 3.526 1.814z"/><path d="M11.013 7.24a4.02 4.02 0 0 0-4.017-4.015A4.02 4.02 0 0 0 2.981 7.24a4.022 4.022 0 0 0 4.015 4.019 4.023 4.023 0 0 0 4.017-4.019zm-7.212 0a3.198 3.198 0 0 1 3.195-3.195 3.198 3.198 0 0 1 3.196 3.195 3.2 3.2 0 0 1-3.196 3.198A3.2 3.2 0 0 1 3.801 7.24z"/></g></svg>