<svg width="32" height="32" viewBox="0 0 32 32" xmlns="http://www.w3.org/2000/svg"><title/><g fill-rule="evenodd"><path d="M16.72.948h-.28C8.197.948 1.37 7.65 1.22 15.898c-.152 8.396 6.553 15.35 14.95 15.504h.28c8.242 0 15.07-6.707 15.222-14.95.073-4.07-1.44-7.92-4.264-10.848A15.136 15.136 0 0 0 16.72.948zm-.27 29.363l-.263-.002C8.395 30.168 2.17 23.712 2.312 15.92 2.452 8.264 8.787 2.04 16.44 2.04l.26.003c3.78.065 7.3 1.6 9.92 4.32a14.036 14.036 0 0 1 3.96 10.066c-.14 7.653-6.48 13.88-14.13 13.88z"/><path d="M21.35 10.69l-4.89 4.714-4.717-4.892a.547.547 0 1 0-.787.757l4.716 4.892-4.89 4.713a.547.547 0 0 0-.014.773.547.547 0 0 0 .773.013l4.89-4.714 4.716 4.888a.546.546 0 1 0 .788-.76L17.22 16.19l4.888-4.715a.547.547 0 0 0 .016-.772.55.55 0 0 0-.773-.01z"/></g></svg>