<svg width="32" height="32" viewBox="0 0 32 32" xmlns="http://www.w3.org/2000/svg"><title/><g fill-rule="evenodd"><path d="M16.72.948h-.28C8.197.948 1.37 7.65 1.22 15.898c-.152 8.396 6.553 15.35 14.95 15.504h.28c8.242 0 15.07-6.707 15.222-14.95.073-4.07-1.44-7.92-4.264-10.848A15.136 15.136 0 0 0 16.72.948zm-.27 29.363h-.263c-7.792-.14-14.017-6.6-13.875-14.39.14-7.65 6.475-13.88 14.128-13.88l.26.008c3.78.065 7.3 1.6 9.92 4.32a14.036 14.036 0 0 1 3.96 10.066c-.14 7.65-6.48 13.88-14.13 13.88z"/><path d="M21.35 10.69l-4.89 4.714-4.717-4.892a.547.547 0 1 0-.787.757l4.716 4.89-4.89 4.71a.547.547 0 0 0-.014.77.547.547 0 0 0 .773.012l4.89-4.715 4.72 4.89a.546.546 0 1 0 .79-.76l-4.714-4.88 4.89-4.717a.547.547 0 0 0 .015-.77.55.55 0 0 0-.773-.01z"/></g></svg>