<svg width="31" height="32" viewBox="0 0 31 32" xmlns="http://www.w3.org/2000/svg"><title/><g fill-rule="evenodd"><path d="M1.032 19.542h29.25a.614.614 0 0 0 .616-.616.606.606 0 0 0-.108-.353L25.206.61a.612.612 0 0 0-.584-.43H6.632a.62.62 0 0 0-.594.434L.442 18.746a.625.625 0 0 0 .093.545c.12.16.3.254.497.254zM7.082 1.41h17.082l5.252 16.9H1.864l5.218-16.9zm23.173 21.035H1.032a.613.613 0 0 0-.612.615c0 .34.273.615.612.615h29.223a.614.614 0 0 0 0-1.23zm0 4.132H1.032a.613.613 0 0 0-.612.618c0 .337.273.614.612.614h29.223c.34 0 .613-.28.613-.617a.614.614 0 0 0-.613-.618zm0 4.135H1.032a.613.613 0 0 0-.612.616c0 .34.273.616.612.616h29.223c.34 0 .613-.277.613-.616a.614.614 0 0 0-.613-.616z"/><path d="M9.296 6.34H22.05a.617.617 0 0 0 .615-.613.62.62 0 0 0-.615-.616H9.296a.614.614 0 0 0-.615.62c0 .336.274.613.618.613zm-1.292 4.136h15.27a.615.615 0 0 0 0-1.23H8.004a.615.615 0 1 0 0 1.23zm16.55 2.917H6.706a.616.616 0 0 0 0 1.23h17.848a.616.616 0 0 0 0-1.23z"/></g></svg>