<svg width="34" height="33" viewBox="0 0 34 33" xmlns="http://www.w3.org/2000/svg"><title/><path d="M23.536 2.247L21.78 4.003c0 .002 0 0-.004.002-.003.003 0 .004-.003.005L1.13 24.65a.564.564 0 0 0-.167.408v7.03c0 .32.263.58.58.58l7.03.005c.16 0 .305-.067.41-.17l20.65-20.646L31.39 10.1a5.572 5.572 0 0 0 0-7.857c-2.1-2.096-5.76-2.092-7.854.004zM2.124 31.507L2.12 26.46l5.054 5.054-5.05-.007zm6.45-.234L2.36 25.058l19.825-19.82 6.217 6.21-19.83 19.825zM29.22 10.626l-6.214-6.208.942-.94 6.212 6.21-.94.938zm1.73-1.783l-6.157-6.16c1.676-1.29 4.252-1.135 5.775.38a4.408 4.408 0 0 1 .382 5.78z" fill-rule="evenodd"/></svg>