<?xml version="1.0" encoding="UTF-8" standalone="no"?>
<svg width="24px" height="24px" viewBox="0 0 24 24" version="1.1" xmlns="http://www.w3.org/2000/svg" xmlns:xlink="http://www.w3.org/1999/xlink">
    <!-- Generator: Sketch 3.7.2 (28276) - http://www.bohemiancoding.com/sketch -->
    <title>Group</title>
    <desc>Created with Sketch.</desc>
    <defs></defs>
    <g id="Symbols" stroke="none" stroke-width="1" fill="none" fill-rule="evenodd">
        <g id="Supply" fill="#000000">
            <g id="Group">
                <path d="M22.742,0.87 L0.719,0.87 C0.494,0.87 0.309,1.055 0.309,1.279 L0.309,8.109 L0.309,23.303 C0.309,23.529 0.495,23.713 0.719,23.713 L22.742,23.713 C22.967,23.713 23.152,23.529 23.152,23.303 L23.152,8.109 L23.152,1.279 C23.152,1.055 22.967,0.87 22.742,0.87 L22.742,0.87 Z M1.129,1.69 L22.332,1.69 L22.332,7.698 L1.129,7.698 L1.129,1.69 L1.129,1.69 Z M1.129,8.518 L22.332,8.518 L22.332,17.39 L17.234,17.39 C17.009,17.39 16.826,17.574 16.826,17.8 L16.826,22.894 L1.129,22.894 L1.129,8.518 L1.129,8.518 Z M21.752,18.209 L17.645,22.313 L17.645,18.209 L21.752,18.209 L21.752,18.209 Z M18.225,22.894 L22.332,18.79 L22.332,22.894 L18.225,22.894 L18.225,22.894 Z" id="Shape"></path>
                <path d="M6.932,3.617 C6.34,3.617 5.856,4.098 5.856,4.693 C5.856,5.289 6.34,5.772 6.932,5.772 C7.526,5.772 8.01,5.289 8.01,4.693 C8.01,4.099 7.525,3.617 6.932,3.617 L6.932,3.617 Z M6.678,4.693 C6.678,4.551 6.791,4.437 6.932,4.437 C7.073,4.437 7.19,4.551 7.19,4.693 C7.189,4.984 6.678,4.984 6.678,4.693 L6.678,4.693 Z" id="Shape"></path>
                <path d="M16.523,3.617 C15.931,3.617 15.447,4.098 15.447,4.693 C15.447,5.289 15.931,5.772 16.523,5.772 C17.119,5.772 17.601,5.289 17.601,4.693 C17.602,4.099 17.119,3.617 16.523,3.617 L16.523,3.617 Z M16.268,4.693 C16.268,4.551 16.383,4.437 16.524,4.437 C16.667,4.437 16.784,4.551 16.784,4.693 C16.781,4.979 16.268,4.983 16.268,4.693 L16.268,4.693 Z" id="Shape"></path>
            </g>
        </g>
    </g>
</svg>