<svg width="24" height="24" viewBox="0 0 24 24" xmlns="http://www.w3.org/2000/svg"><title>Group</title><g fill-rule="evenodd"><path d="M22.742.87H.719a.412.412 0 0 0-.41.409v22.024c0 .226.186.41.41.41h22.023c.225 0 .41-.184.41-.41V1.279a.412.412 0 0 0-.41-.409zm-21.613.82h21.203v6.008H1.129V1.69zm0 6.828h21.203v8.872h-5.098a.41.41 0 0 0-.408.41v5.094H1.129V8.518zm20.623 9.691l-4.107 4.104v-4.104h4.107zm-3.527 4.685l4.107-4.104v4.104h-4.107z"/><path d="M6.932 3.617a1.077 1.077 0 1 0 .002 2.154 1.077 1.077 0 0 0-.002-2.154zm-.254 1.076c0-.142.113-.256.254-.256.141 0 .258.114.258.256-.001.291-.512.291-.512 0zm9.845-1.076a1.077 1.077 0 1 0 .002 2.154 1.077 1.077 0 0 0-.002-2.154zm-.255 1.076a.258.258 0 0 1 .516 0c-.003.286-.516.29-.516 0z"/></g></svg>