<svg width="28" height="32" viewBox="0 0 28 32" xmlns="http://www.w3.org/2000/svg"><title/><path d="M9.3 15.304H6.005A6.007 6.007 0 0 0 0 21.308v7.688A3 3 0 0 0 3.004 32h21.818a3.002 3.002 0 0 0 3.004-3.004v-7.688a6 6 0 0 0-6.004-6.004h-3.297a8.343 8.343 0 0 0 3.736-6.956c0-4.6-3.73-8.348-8.34-8.348A8.346 8.346 0 0 0 9.3 15.304zM1.39 21.7a5.007 5.007 0 0 1 5.01-5.004h15.027a5.003 5.003 0 0 1 5.008 5.003v6.91c0 1.1-.892 1.99-2.007 1.99H3.398a2 2 0 0 1-2.008-1.99V21.7zM6.958 8.347a6.962 6.962 0 0 1 6.956-6.957 6.962 6.962 0 0 1 6.956 6.96 6.962 6.962 0 0 1-6.957 6.956A6.962 6.962 0 0 1 6.957 8.35z" fill="#546E7A" fill-rule="evenodd"/></svg>